<svg width="26" height="26" viewBox="0 0 26 26" fill="none" xmlns="http://www.w3.org/2000/svg">
<g clip-path="url(#clip0_45_277)">
<path d="M19.9991 22.4861C19.9991 23.2008 19.909 25.7031 17.4077 25.7031C16.0675 25.7031 15.4419 23.469 12.4952 23.469C10.5304 23.469 10.8867 24.2717 7.22541 24.2717C3.56202 24.2717 1.41805 22.4861 1.41805 19.8067C1.41805 16.5897 3.36749 17.6238 5.34867 16.0552C7.49366 14.3577 7.31448 13.0174 9.99496 13.0174C12.227 13.0174 13.474 16.0696 14.9965 16.6798C17.2296 17.5726 19.9991 20.6104 19.9991 22.4861ZM3.75963 12.0007C3.81799 10.4742 3.17193 9.18102 1.9392 9.18102C0.646058 9.18102 0 10.4742 0 11.5298C0 12.999 0.822163 14.4078 1.9392 14.4078C3.05521 14.4068 3.70024 13.5283 3.75963 12.0007ZM13.0379 10.5909C14.1539 10.5909 15.6221 8.53598 15.6805 7.00838C15.7399 5.48077 15.5638 3.89685 14.33 3.89685C13.0379 3.89685 11.2175 5.834 11.2175 7.41997C11.2175 8.88819 11.9229 10.5909 13.0379 10.5909ZM17.5019 14.3495C19.1452 14.3495 20.1455 12.5291 20.2039 11.0014C20.2623 9.47384 19.9101 8.18172 18.6763 8.18172C16.6808 8.18172 15.6815 10.1209 15.6815 11.7059C15.6815 13.1741 16.3859 14.3495 17.5019 14.3495ZM22.7277 13.1167C20.7312 13.1167 19.5568 15.4051 19.5568 16.9921C19.5568 18.4613 20.4957 19.5179 21.6127 19.5179C23.256 19.5179 24.3147 17.8746 24.3721 16.347C24.4304 14.8184 23.9605 13.1167 22.7277 13.1167ZM6.87217 11.1192C7.98819 11.1192 8.86871 10.2981 8.86871 8.76942C8.86871 6.18621 10.0421 3.60198 8.81035 3.60198C6.34284 3.60198 4.93298 7.18346 4.93298 8.24111C4.93298 9.71035 5.75514 11.1192 6.87217 11.1192ZM2.10199 8.30254C2.44396 8.39571 2.76341 8.56874 2.75419 8.08548C2.73884 7.33089 2.81665 6.09918 2.44396 6.06744C2.22178 6.05004 1.6003 7.3442 1.42215 7.98719C1.25628 8.59844 1.70781 8.19606 2.10199 8.30254ZM9.0571 2.38051C9.43081 2.49416 9.7779 2.68665 9.7994 2.22898C9.83626 1.5133 10.0093 0.356331 9.59565 0.296947C9.35197 0.261112 8.56667 1.43139 8.32299 2.02421C8.09467 2.58835 8.62605 2.24434 9.0571 2.38051ZM15.6774 2.80439C16.0194 2.89756 16.346 3.07059 16.3306 2.58631C16.2999 1.71705 16.2385 0.511959 15.8668 0.480219C15.6457 0.461789 15.147 1.56961 14.9699 2.2126C14.803 2.82487 15.2842 2.69688 15.6774 2.80439ZM21.1336 6.14116C21.4755 6.23536 21.8032 6.40839 21.7858 5.9241C21.7561 5.05484 21.5503 3.42792 21.1776 3.39823C20.9564 3.3798 20.6278 4.67294 20.3636 5.37224C20.1404 5.96404 20.7404 6.03468 21.1336 6.14116ZM25.4144 9.78407C25.1932 9.76564 24.842 10.6697 24.6649 11.3137C24.499 11.925 24.9526 11.8574 25.3468 11.9649C25.6887 12.0581 26.0154 12.2311 25.999 11.7478C25.9672 10.8786 25.787 9.81479 25.4144 9.78407Z" fill="#013B6D"/>
</g>
<defs>
<clipPath id="clip0_45_277">
<rect width="26" height="26" fill="white"/>
</clipPath>
</defs>
</svg>
