<svg width="181" height="42" viewBox="0 0 181 42" fill="none" xmlns="http://www.w3.org/2000/svg">
<path d="M43.108 9.428C42.412 9.428 41.92 9.44 41.632 9.464C41.728 9.656 41.776 9.86 41.776 10.076C41.776 10.292 41.728 11.144 41.632 12.632C41.536 14.12 41.476 15.788 41.452 17.636C43.132 16.484 44.848 15.908 46.6 15.908C47.32 15.308 47.68 14.444 47.68 13.316C47.68 12.188 47.272 11.264 46.456 10.544C45.664 9.8 44.548 9.428 43.108 9.428ZM40.264 7.16L43.792 6.944C45.688 6.944 47.236 7.496 48.436 8.6C49.636 9.68 50.236 10.928 50.236 12.344C50.236 12.968 50.056 13.64 49.696 14.36C49.336 15.056 48.868 15.656 48.292 16.16C50.284 16.712 51.796 17.696 52.828 19.112C53.884 20.528 54.412 22.064 54.412 23.72C54.412 25.952 53.536 27.932 51.784 29.66C50.032 31.364 47.788 32.216 45.052 32.216H37.636C37.252 32.216 36.904 32.096 36.592 31.856C36.304 31.592 36.16 31.256 36.16 30.848C36.16 30.44 36.304 30.116 36.592 29.876C36.904 29.612 37.252 29.48 37.636 29.48H38.32C38.536 27.344 38.644 24.812 38.644 21.884C38.644 18.932 38.584 16.304 38.464 14C38.368 11.696 38.32 10.424 38.32 10.184C38.32 9.92 38.344 9.74 38.392 9.644H37.636C37.252 9.644 36.904 9.524 36.592 9.284C36.304 9.02 36.16 8.696 36.16 8.312C36.16 7.904 36.304 7.58 36.592 7.34C36.904 7.076 37.252 6.944 37.636 6.944L40.264 7.16ZM41.776 29.624C43.36 29.96 44.8 30.128 46.096 30.128C47.416 30.128 48.604 29.624 49.66 28.616C50.74 27.584 51.28 26.132 51.28 24.26C51.28 22.388 50.716 20.948 49.588 19.94C48.46 18.932 47.08 18.428 45.448 18.428C43.84 18.428 42.508 18.752 41.452 19.4C41.452 20.816 41.56 24.224 41.776 29.624ZM62.8546 24.836L58.5706 24.476C58.1626 24.476 57.8386 24.512 57.5986 24.584C57.7426 25.952 58.3186 27.092 59.3266 28.004C60.3586 28.916 61.5706 29.372 62.9626 29.372C64.3066 29.372 65.5186 28.88 66.5986 27.896C66.9826 27.56 67.2706 27.392 67.4626 27.392C67.6546 27.392 67.8226 27.464 67.9666 27.608C68.1106 27.752 68.1826 27.908 68.1826 28.076C68.1826 28.772 67.4986 29.636 66.1306 30.668C64.7866 31.7 63.2506 32.216 61.5226 32.216C59.8186 32.216 58.3306 31.52 57.0586 30.128C55.8106 28.736 55.1866 27.008 55.1866 24.944C55.1866 22.304 56.1826 20.084 58.1746 18.284C60.1666 16.484 62.3626 15.584 64.7626 15.584C65.7706 15.584 66.5866 15.764 67.2106 16.124C67.8586 16.46 68.1826 16.904 68.1826 17.456C68.1826 17.984 68.0146 18.416 67.6786 18.752C67.3666 19.088 67.0546 19.256 66.7426 19.256C66.4306 19.256 65.8906 19.112 65.1226 18.824C64.3786 18.536 63.6586 18.392 62.9626 18.392C61.6666 18.392 60.5386 18.788 59.5786 19.58C58.6426 20.348 58.0186 21.308 57.7066 22.46L62.6746 22.172C63.7786 22.172 64.3306 22.604 64.3306 23.468C64.3306 24.38 63.8386 24.836 62.8546 24.836ZM81.2236 27.176C81.3916 27.608 81.7396 28.196 82.2676 28.94C82.8196 29.66 83.0956 30.248 83.0956 30.704C83.0956 31.16 82.9756 31.532 82.7356 31.82C82.4956 32.084 82.1716 32.216 81.7636 32.216C80.7796 32.216 79.9036 31.196 79.1356 29.156L78.8476 28.364C77.6236 30.932 75.7876 32.216 73.3396 32.216C72.1156 32.216 71.0956 31.832 70.2796 31.064C69.4876 30.272 69.0916 29.288 69.0916 28.112C69.0916 26.288 69.7156 24.716 70.9636 23.396C72.2116 22.076 73.8436 21.368 75.8596 21.272C75.3796 20.432 74.8396 19.808 74.2396 19.4C73.6636 18.968 73.1356 18.716 72.6556 18.644C72.1756 18.572 71.7196 18.536 71.2876 18.536C70.8796 18.512 70.5556 18.416 70.3156 18.248C70.0756 18.08 69.9556 17.756 69.9556 17.276C69.9556 16.772 70.1476 16.364 70.5316 16.052C70.9396 15.74 71.4196 15.584 71.9716 15.584C73.5316 15.584 75.0676 16.364 76.5796 17.924C78.0916 19.484 79.4116 21.932 80.5396 25.268L81.2236 27.176ZM74.9596 23.18C74.0956 23.18 73.3156 23.468 72.6196 24.044C71.9476 24.62 71.6116 25.364 71.6116 26.276C71.6116 27.188 71.9116 27.956 72.5116 28.58C73.1356 29.18 73.8796 29.48 74.7436 29.48C75.6076 29.48 76.3516 29.18 76.9756 28.58C77.5996 27.956 77.9116 27.224 77.9116 26.384C77.9116 25.784 77.8036 25.232 77.5876 24.728C77.3716 24.2 77.2396 23.876 77.1916 23.756C76.5676 23.372 75.8236 23.18 74.9596 23.18ZM88.063 23.54L88.351 30.056C88.351 30.704 88.183 31.232 87.847 31.64C87.535 32.024 87.151 32.216 86.695 32.216C86.239 32.216 85.867 32.036 85.579 31.676C85.291 31.292 85.147 30.776 85.147 30.128C85.147 29.48 85.207 28.556 85.327 27.356C85.567 24.956 85.687 22.928 85.687 21.272C85.687 20.552 85.459 19.868 85.003 19.22C84.571 18.548 84.355 17.948 84.355 17.42C84.355 16.892 84.535 16.46 84.895 16.124C85.255 15.764 85.663 15.584 86.119 15.584C87.319 15.584 87.919 16.532 87.919 18.428V19.832C88.639 18.536 89.503 17.504 90.511 16.736C91.519 15.968 92.443 15.584 93.283 15.584C94.123 15.584 94.759 15.8 95.191 16.232C95.647 16.64 95.875 17.192 95.875 17.888C95.875 18.584 95.707 19.172 95.371 19.652C95.035 20.108 94.675 20.336 94.291 20.336C93.907 20.336 93.607 20.24 93.391 20.048C93.199 19.832 93.055 19.616 92.959 19.4C92.863 19.16 92.683 18.944 92.419 18.752C92.155 18.536 91.819 18.428 91.411 18.428C90.715 18.428 90.019 18.884 89.323 19.796C88.627 20.708 88.207 21.956 88.063 23.54ZM97.1583 6.944L104.43 7.16L111.702 6.944C112.086 6.944 112.422 7.076 112.71 7.34C113.022 7.58 113.178 7.916 113.178 8.348C113.178 8.78 113.022 9.128 112.71 9.392C112.422 9.632 112.086 9.752 111.702 9.752L106.122 9.572C105.93 13.7 105.834 16.988 105.834 19.436C105.834 21.86 105.882 24.212 105.978 26.492C106.098 28.772 106.158 30.104 106.158 30.488C106.158 30.872 105.99 31.256 105.654 31.64C105.342 32.024 104.934 32.216 104.43 32.216C103.926 32.216 103.506 32.024 103.17 31.64C102.858 31.256 102.702 30.872 102.702 30.488C102.702 30.104 102.75 28.772 102.846 26.492C102.966 24.212 103.026 21.992 103.026 19.832C103.026 17.648 102.918 14.228 102.702 9.572L97.1583 9.752C96.7743 9.752 96.4263 9.632 96.1143 9.392C95.8263 9.128 95.6823 8.78 95.6823 8.348C95.6823 7.916 95.8263 7.58 96.1143 7.34C96.4263 7.076 96.7743 6.944 97.1583 6.944ZM115.628 23.54L115.916 30.056C115.916 30.704 115.748 31.232 115.412 31.64C115.1 32.024 114.716 32.216 114.26 32.216C113.804 32.216 113.432 32.036 113.144 31.676C112.856 31.292 112.712 30.776 112.712 30.128C112.712 29.48 112.772 28.556 112.892 27.356C113.132 24.956 113.252 22.928 113.252 21.272C113.252 20.552 113.024 19.868 112.568 19.22C112.136 18.548 111.92 17.948 111.92 17.42C111.92 16.892 112.1 16.46 112.46 16.124C112.82 15.764 113.228 15.584 113.684 15.584C114.884 15.584 115.484 16.532 115.484 18.428V19.832C116.204 18.536 117.068 17.504 118.076 16.736C119.084 15.968 120.008 15.584 120.848 15.584C121.688 15.584 122.324 15.8 122.756 16.232C123.212 16.64 123.44 17.192 123.44 17.888C123.44 18.584 123.272 19.172 122.936 19.652C122.6 20.108 122.24 20.336 121.856 20.336C121.472 20.336 121.172 20.24 120.956 20.048C120.764 19.832 120.62 19.616 120.524 19.4C120.428 19.16 120.248 18.944 119.984 18.752C119.72 18.536 119.384 18.428 118.976 18.428C118.28 18.428 117.584 18.884 116.888 19.796C116.192 20.708 115.772 21.956 115.628 23.54ZM136.46 27.176C136.628 27.608 136.976 28.196 137.504 28.94C138.056 29.66 138.332 30.248 138.332 30.704C138.332 31.16 138.212 31.532 137.972 31.82C137.732 32.084 137.408 32.216 137 32.216C136.016 32.216 135.14 31.196 134.372 29.156L134.084 28.364C132.86 30.932 131.024 32.216 128.576 32.216C127.352 32.216 126.332 31.832 125.516 31.064C124.724 30.272 124.328 29.288 124.328 28.112C124.328 26.288 124.952 24.716 126.2 23.396C127.448 22.076 129.08 21.368 131.096 21.272C130.616 20.432 130.076 19.808 129.476 19.4C128.9 18.968 128.372 18.716 127.892 18.644C127.412 18.572 126.956 18.536 126.524 18.536C126.116 18.512 125.792 18.416 125.552 18.248C125.312 18.08 125.192 17.756 125.192 17.276C125.192 16.772 125.384 16.364 125.768 16.052C126.176 15.74 126.656 15.584 127.208 15.584C128.768 15.584 130.304 16.364 131.816 17.924C133.328 19.484 134.648 21.932 135.776 25.268L136.46 27.176ZM130.196 23.18C129.332 23.18 128.552 23.468 127.856 24.044C127.184 24.62 126.848 25.364 126.848 26.276C126.848 27.188 127.148 27.956 127.748 28.58C128.372 29.18 129.116 29.48 129.98 29.48C130.844 29.48 131.588 29.18 132.212 28.58C132.836 27.956 133.148 27.224 133.148 26.384C133.148 25.784 133.04 25.232 132.824 24.728C132.608 24.2 132.476 23.876 132.428 23.756C131.804 23.372 131.06 23.18 130.196 23.18ZM146.431 18.392C144.847 18.392 143.551 18.944 142.543 20.048C141.559 21.128 141.067 22.424 141.067 23.936C141.067 25.448 141.583 26.732 142.615 27.788C143.671 28.844 144.955 29.372 146.467 29.372C147.811 29.372 149.023 28.88 150.103 27.896C150.487 27.56 150.775 27.392 150.967 27.392C151.159 27.392 151.327 27.464 151.471 27.608C151.615 27.752 151.687 27.908 151.687 28.076C151.687 28.772 151.003 29.636 149.635 30.668C148.291 31.7 146.755 32.216 145.027 32.216C143.323 32.216 141.835 31.52 140.563 30.128C139.315 28.736 138.691 27.008 138.691 24.944C138.691 22.304 139.687 20.084 141.679 18.284C143.671 16.484 145.867 15.584 148.267 15.584C149.275 15.584 150.091 15.764 150.715 16.124C151.363 16.46 151.687 16.904 151.687 17.456C151.687 17.984 151.519 18.416 151.183 18.752C150.871 19.088 150.559 19.256 150.247 19.256C149.935 19.256 149.395 19.112 148.627 18.824C147.883 18.536 147.151 18.392 146.431 18.392ZM155.989 6.728L155.665 18.32V20.516C156.673 19.028 157.957 17.84 159.517 16.952C161.077 16.04 162.445 15.584 163.621 15.584C165.829 15.584 166.933 16.22 166.933 17.492C166.933 18.02 166.765 18.452 166.429 18.788C166.117 19.1 165.793 19.256 165.457 19.256C165.145 19.256 164.617 19.112 163.873 18.824C163.129 18.536 162.397 18.392 161.677 18.392C159.733 18.392 158.233 19.196 157.177 20.804C159.553 23.084 161.857 25.064 164.089 26.744C165.937 28.136 167.005 29.036 167.293 29.444C167.581 29.852 167.725 30.272 167.725 30.704C167.725 31.136 167.581 31.496 167.293 31.784C167.005 32.072 166.621 32.216 166.141 32.216C165.685 32.216 165.157 31.964 164.557 31.46C163.981 30.932 162.877 29.888 161.245 28.328C159.613 26.744 157.789 25.148 155.773 23.54C155.917 26.564 155.989 28.88 155.989 30.488C155.989 30.992 155.845 31.412 155.557 31.748C155.269 32.06 154.897 32.216 154.441 32.216C153.985 32.216 153.589 32.06 153.253 31.748C152.941 31.412 152.785 30.872 152.785 30.128C152.785 29.384 152.845 27.62 152.965 24.836C153.085 22.028 153.145 19.856 153.145 18.32C153.145 16.784 153.085 14.72 152.965 12.128C152.845 9.536 152.785 7.868 152.785 7.124C152.785 6.38 152.941 5.84 153.253 5.504C153.589 5.168 153.985 5 154.441 5C154.897 5 155.269 5.168 155.557 5.504C155.845 5.816 155.989 6.224 155.989 6.728ZM171.869 32.216C170.981 32.216 170.261 32.036 169.709 31.676C169.157 31.316 168.881 30.872 168.881 30.344C168.881 29.792 169.037 29.36 169.349 29.048C169.685 28.712 170.009 28.544 170.321 28.544C170.657 28.544 171.197 28.688 171.941 28.976C172.685 29.264 173.453 29.408 174.245 29.408C175.061 29.408 175.877 29.204 176.693 28.796C177.509 28.364 177.917 27.848 177.917 27.248C177.917 26.624 177.605 26.144 176.981 25.808C176.381 25.472 175.649 25.208 174.785 25.016C173.921 24.8 173.057 24.56 172.193 24.296C171.329 24.032 170.585 23.636 169.961 23.108C169.361 22.556 169.061 21.884 169.061 21.092C169.061 19.796 169.889 18.56 171.545 17.384C173.201 16.184 175.025 15.584 177.017 15.584C177.977 15.584 178.709 15.764 179.213 16.124C179.741 16.46 180.005 16.904 180.005 17.456C180.005 18.008 179.837 18.452 179.501 18.788C179.189 19.1 178.865 19.256 178.529 19.256C178.217 19.256 177.689 19.112 176.945 18.824C176.201 18.536 175.421 18.392 174.605 18.392C173.813 18.392 173.117 18.56 172.517 18.896C171.941 19.232 171.653 19.64 171.653 20.12C171.653 20.6 172.109 21.02 173.021 21.38C173.957 21.74 174.977 22.028 176.081 22.244C177.185 22.46 178.193 22.892 179.105 23.54C180.041 24.164 180.509 24.98 180.509 25.988C180.509 27.548 179.597 28.976 177.773 30.272C175.949 31.568 173.981 32.216 171.869 32.216Z" fill="#F5F5F5"/>
<g clip-path="url(#clip0_4_21)">
<path d="M19.9991 28.4861C19.9991 29.2008 19.909 31.7031 17.4077 31.7031C16.0675 31.7031 15.4419 29.469 12.4952 29.469C10.5304 29.469 10.8867 30.2717 7.22541 30.2717C3.56202 30.2717 1.41805 28.4861 1.41805 25.8066C1.41805 22.5897 3.36749 23.6238 5.34867 22.0552C7.49366 20.3576 7.31448 19.0174 9.99496 19.0174C12.227 19.0174 13.474 22.0695 14.9965 22.6798C17.2296 23.5726 19.9991 26.6104 19.9991 28.4861ZM3.75963 18.0007C3.81799 16.4741 3.17193 15.181 1.9392 15.181C0.646058 15.181 0 16.4741 0 17.5297C0 18.999 0.822163 20.4078 1.9392 20.4078C3.05521 20.4068 3.70024 19.5283 3.75963 18.0007ZM13.0379 16.5908C14.1539 16.5908 15.6221 14.536 15.6805 13.0083C15.7399 11.4807 15.5638 9.89683 14.33 9.89683C13.0379 9.89683 11.2175 11.834 11.2175 13.4199C11.2175 14.8882 11.9229 16.5908 13.0379 16.5908ZM17.5019 20.3495C19.1452 20.3495 20.1455 18.529 20.2039 17.0014C20.2623 15.4738 19.9101 14.1817 18.6763 14.1817C16.6808 14.1817 15.6815 16.1209 15.6815 17.7058C15.6815 19.1741 16.3859 20.3495 17.5019 20.3495ZM22.7277 19.1167C20.7312 19.1167 19.5568 21.4051 19.5568 22.992C19.5568 24.4613 20.4957 25.5179 21.6127 25.5179C23.256 25.5179 24.3147 23.8746 24.3721 22.347C24.4304 20.8184 23.9605 19.1167 22.7277 19.1167ZM6.87217 17.1192C7.98819 17.1192 8.86871 16.298 8.86871 14.7694C8.86871 12.1862 10.0421 9.60195 8.81035 9.60195C6.34284 9.60195 4.93298 13.1834 4.93298 14.2411C4.93298 15.7103 5.75514 17.1192 6.87217 17.1192ZM2.10199 14.3025C2.44396 14.3957 2.76341 14.5687 2.75419 14.0855C2.73884 13.3309 2.81665 12.0992 2.44396 12.0674C2.22178 12.05 1.6003 13.3442 1.42215 13.9872C1.25628 14.5984 1.70781 14.196 2.10199 14.3025ZM9.0571 8.38048C9.43081 8.49413 9.7779 8.68662 9.7994 8.22895C9.83626 7.51327 10.0093 6.3563 9.59565 6.29692C9.35197 6.26109 8.56667 7.43136 8.32299 8.02418C8.09467 8.58833 8.62605 8.24431 9.0571 8.38048ZM15.6774 8.80436C16.0194 8.89754 16.346 9.07057 16.3306 8.58628C16.2999 7.71702 16.2385 6.51193 15.8668 6.48019C15.6457 6.46176 15.147 7.56958 14.9699 8.21257C14.803 8.82484 15.2842 8.69686 15.6774 8.80436ZM21.1336 12.1411C21.4755 12.2353 21.8032 12.4084 21.7858 11.9241C21.7561 11.0548 21.5503 9.4279 21.1776 9.3982C20.9564 9.37977 20.6278 10.6729 20.3636 11.3722C20.1404 11.964 20.7404 12.0347 21.1336 12.1411ZM25.4144 15.784C25.1932 15.7656 24.842 16.6697 24.6649 17.3137C24.499 17.9249 24.9526 17.8574 25.3468 17.9649C25.6887 18.058 26.0154 18.2311 25.999 17.7478C25.9672 16.8786 25.787 15.8148 25.4144 15.784Z" fill="#C6FCFF"/>
</g>
<defs>
<clipPath id="clip0_4_21">
<rect width="26" height="26" fill="white" transform="translate(0 6)"/>
</clipPath>
</defs>
</svg>
