<svg width="26" height="26" viewBox="0 0 26 26" fill="none" xmlns="http://www.w3.org/2000/svg">
<g clip-path="url(#clip0_3_6)">
<path d="M19.9991 22.4861C19.9991 23.2008 19.909 25.7031 17.4077 25.7031C16.0675 25.7031 15.4419 23.469 12.4952 23.469C10.5304 23.469 10.8867 24.2717 7.22541 24.2717C3.56202 24.2717 1.41805 22.4861 1.41805 19.8066C1.41805 16.5897 3.36749 17.6238 5.34867 16.0552C7.49366 14.3576 7.31448 13.0174 9.99496 13.0174C12.227 13.0174 13.474 16.0695 14.9965 16.6798C17.2296 17.5726 19.9991 20.6104 19.9991 22.4861ZM3.75963 12.0007C3.81799 10.4741 3.17193 9.18099 1.9392 9.18099C0.646058 9.18099 0 10.4741 0 11.5297C0 12.999 0.822163 14.4078 1.9392 14.4078C3.05521 14.4068 3.70024 13.5283 3.75963 12.0007ZM13.0379 10.5908C14.1539 10.5908 15.6221 8.53595 15.6805 7.00835C15.7399 5.48074 15.5638 3.89683 14.33 3.89683C13.0379 3.89683 11.2175 5.83398 11.2175 7.41994C11.2175 8.88816 11.9229 10.5908 13.0379 10.5908ZM17.5019 14.3495C19.1452 14.3495 20.1455 12.529 20.2039 11.0014C20.2623 9.47381 19.9101 8.1817 18.6763 8.1817C16.6808 8.1817 15.6815 10.1209 15.6815 11.7058C15.6815 13.1741 16.3859 14.3495 17.5019 14.3495ZM22.7277 13.1167C20.7312 13.1167 19.5568 15.4051 19.5568 16.992C19.5568 18.4613 20.4957 19.5179 21.6127 19.5179C23.256 19.5179 24.3147 17.8746 24.3721 16.347C24.4304 14.8184 23.9605 13.1167 22.7277 13.1167ZM6.87217 11.1192C7.98819 11.1192 8.86871 10.298 8.86871 8.76939C8.86871 6.18619 10.0421 3.60195 8.81035 3.60195C6.34284 3.60195 4.93298 7.18343 4.93298 8.24108C4.93298 9.71033 5.75514 11.1192 6.87217 11.1192ZM2.10199 8.30251C2.44396 8.39569 2.76341 8.56872 2.75419 8.08545C2.73884 7.33087 2.81665 6.09916 2.44396 6.06742C2.22178 6.05001 1.6003 7.34418 1.42215 7.98716C1.25628 8.59841 1.70781 8.19603 2.10199 8.30251ZM9.0571 2.38048C9.43081 2.49413 9.7779 2.68662 9.7994 2.22895C9.83626 1.51327 10.0093 0.356304 9.59565 0.29692C9.35197 0.261085 8.56667 1.43136 8.32299 2.02418C8.09467 2.58833 8.62605 2.24431 9.0571 2.38048ZM15.6774 2.80436C16.0194 2.89754 16.346 3.07057 16.3306 2.58628C16.2999 1.71702 16.2385 0.511932 15.8668 0.480192C15.6457 0.461762 15.147 1.56958 14.9699 2.21257C14.803 2.82484 15.2842 2.69686 15.6774 2.80436ZM21.1336 6.14114C21.4755 6.23533 21.8032 6.40836 21.7858 5.92408C21.7561 5.05482 21.5503 3.4279 21.1776 3.3982C20.9564 3.37977 20.6278 4.67292 20.3636 5.37221C20.1404 5.96401 20.7404 6.03465 21.1336 6.14114ZM25.4144 9.78404C25.1932 9.76561 24.842 10.6697 24.6649 11.3137C24.499 11.9249 24.9526 11.8574 25.3468 11.9649C25.6887 12.058 26.0154 12.2311 25.999 11.7478C25.9672 10.8786 25.787 9.81476 25.4144 9.78404Z" fill="#C6FCFF"/>
</g>
<defs>
<clipPath id="clip0_3_6">
<rect width="26" height="26" fill="white"/>
</clipPath>
</defs>
</svg>
