<svg width="22" height="18" viewBox="0 0 22 18" fill="none" xmlns="http://www.w3.org/2000/svg">
<path fill-rule="evenodd" clip-rule="evenodd" d="M7.90693 0.999904C7.93791 0.999964 7.96894 1.00001 8 1.00001C8.0311 1.00001 8.0621 0.999964 8.0931 0.999904C8.4618 0.999294 8.8242 0.998693 9.147 1.08519C10.0098 1.31636 10.6836 1.99023 10.9148 2.85296C11.0013 3.1758 11.0007 3.53821 11.0001 3.90693C11.0001 3.93792 11 3.96895 11 4.00001H19C19.5523 4.00001 20 4.44772 20 5.00001C20 5.55229 19.5523 6.00001 19 6.00001H11C11 6.03107 11.0001 6.0621 11.0001 6.09309C11.0007 6.46181 11.0013 6.82422 10.9148 7.1471C10.6836 8.0098 10.0098 8.6837 9.147 8.9148C8.8242 9.0013 8.4618 9.0007 8.0931 9.0001C8.0621 9.0001 8.0311 9 8 9C7.96894 9 7.93791 9.0001 7.90692 9.0001C7.5382 9.0007 7.17579 9.0013 6.85295 8.9148C5.99022 8.6837 5.31635 8.0098 5.08519 7.1471C4.99868 6.82421 4.99928 6.46181 4.9999 6.09308C4.99995 6.0621 5 6.03106 5 6.00001H3C2.44772 6.00001 2 5.55229 2 5.00001C2 4.44772 2.44772 4.00001 3 4.00001H5C5 3.96895 4.99995 3.93792 4.9999 3.90693C4.99928 3.53821 4.99868 3.1758 5.08519 2.85296C5.31635 1.99023 5.99022 1.31636 6.85295 1.08519C7.17579 0.998693 7.5382 0.999294 7.90693 0.999904ZM7.49861 3.00536C7.39195 3.01022 7.36685 3.01805 7.37059 3.01704C7.19804 3.06328 7.06327 3.19805 7.01704 3.3706C7.0162 3.37411 7.00963 3.40483 7.00535 3.49861C7.00024 3.61064 7 3.75845 7 4.00001V6.00001C7 6.24156 7.00024 6.38937 7.00535 6.5014C7.01021 6.60806 7.01804 6.63315 7.01704 6.62942C7.06327 6.80196 7.19804 6.93674 7.37059 6.98297C7.36685 6.98197 7.39195 6.98979 7.49861 6.99466C7.61063 6.99977 7.75844 7 8 7C8.2416 7 8.3894 6.99977 8.5014 6.99466C8.608 6.98979 8.6331 6.98197 8.6294 6.98297C8.802 6.93674 8.9367 6.80196 8.983 6.62942C8.982 6.63315 8.9898 6.60806 8.9946 6.5014C8.9998 6.38937 9 6.24156 9 6.00001V4.00001C9 3.75845 8.9998 3.61064 8.9946 3.49861C8.9898 3.39196 9 3 9.001 3.00374M7.49861 3.00536C7.61063 3.00025 7.75844 3.00001 8 3.00001L7.49861 3.00536ZM8 3.00001C8.2416 3.00001 8.3894 3.00025 8.5014 3.00536L8 3.00001ZM8.5014 3.00536C8.5952 3.00963 8.6259 3.0162 8.6294 3.01704L8.5014 3.00536ZM13.9069 8.9999C13.9379 9 13.9689 9 14 9C14.0311 9 14.0621 9 14.0931 8.9999C14.4618 8.9993 14.8242 8.9987 15.147 9.0852C16.0098 9.3164 16.6836 9.9902 16.9148 10.853C17.0013 11.1758 17.0007 11.5382 17.0001 11.9069C17.0001 11.9379 17 11.9689 17 12H19C19.5523 12 20 12.4477 20 13C20 13.5523 19.5523 14 19 14H17C17 14.0311 17.0001 14.0621 17.0001 14.0931C17.0007 14.4618 17.0013 14.8242 16.9148 15.1471C16.6836 16.0098 16.0098 16.6837 15.147 16.9148C14.8242 17.0013 14.4618 17.0007 14.0931 17.0001C14.0621 17.0001 14.0311 17 14 17C13.9689 17 13.9379 17.0001 13.9069 17.0001C13.5382 17.0007 13.1758 17.0013 12.853 16.9148C11.9902 16.6837 11.3164 16.0098 11.0852 15.1471C10.9987 14.8242 10.9993 14.4618 10.9999 14.0931C10.9999 14.0621 11 14.0311 11 14H3C2.44772 14 2 13.5523 2 13C2 12.4477 2.44772 12 3 12H11C11 11.969 10.9999 11.9379 10.9999 11.9069C10.9993 11.5382 10.9987 11.1758 11.0852 10.853C11.3164 9.9902 11.9902 9.3164 12.853 9.0852C13.1758 8.9987 13.5382 8.9993 13.9069 8.9999ZM13.4986 11.0054C13.392 11.0102 13.3669 11.018 13.3706 11.017C13.198 11.0633 13.0633 11.1981 13.017 11.3706C13.018 11.3669 13.0102 11.392 13.0054 11.4986C13.0002 11.6106 13 11.7585 13 12V14C13 14.2416 13.0002 14.3894 13.0054 14.5014C13.0102 14.6081 13.018 14.6332 13.017 14.6294C13.0633 14.802 13.198 14.9367 13.3706 14.983C13.3669 14.982 13.392 14.9898 13.4986 14.9947C13.6106 14.9998 13.7584 15 14 15C14.2416 15 14.3894 14.9998 14.5014 14.9947C14.608 14.9898 14.6331 14.982 14.6294 14.983C14.802 14.9367 14.9367 14.802 14.983 14.6294C14.982 14.6332 14.9898 14.6081 14.9946 14.5014C14.9998 14.3894 15 14.2416 15 14V12C15 11.7585 14.9998 11.6106 14.9946 11.4986C14.9898 11.392 14.982 11.3669 14.983 11.3706C14.9367 11.1981 14.802 11.0633 14.6294 11.017C14.6331 11.018 14.608 11.0102 14.5014 11.0054C14.3894 11.0002 14.2416 11 14 11C13.7584 11 13.6106 11.0002 13.4986 11.0054Z" fill="#F5F5F5" fill-opacity="0.75"/>
</svg>
