<svg width="43" height="42" viewBox="0 0 43 42" fill="none" xmlns="http://www.w3.org/2000/svg">
<rect width="43" height="42" rx="21" fill="#C6FCFF"/>
<g clip-path="url(#clip0_24_14)">
<path d="M28.4991 30.4861C28.4991 31.2008 28.409 33.7031 25.9077 33.7031C24.5675 33.7031 23.9419 31.469 20.9952 31.469C19.0304 31.469 19.3867 32.2717 15.7254 32.2717C12.062 32.2717 9.91805 30.4861 9.91805 27.8067C9.91805 24.5897 11.8675 25.6238 13.8487 24.0552C15.9937 22.3577 15.8145 21.0174 18.495 21.0174C20.727 21.0174 21.974 24.0696 23.4965 24.6798C25.7296 25.5726 28.4991 28.6104 28.4991 30.4861ZM12.2596 20.0007C12.318 18.4742 11.6719 17.181 10.4392 17.181C9.14606 17.181 8.5 18.4742 8.5 19.5298C8.5 20.999 9.32216 22.4078 10.4392 22.4078C11.5552 22.4068 12.2002 21.5283 12.2596 20.0007ZM21.5379 18.5909C22.6539 18.5909 24.1221 16.536 24.1805 15.0084C24.2399 13.4808 24.0638 11.8969 22.83 11.8969C21.5379 11.8969 19.7175 13.834 19.7175 15.42C19.7175 16.8882 20.4229 18.5909 21.5379 18.5909ZM26.0019 22.3495C27.6452 22.3495 28.6455 20.5291 28.7039 19.0014C28.7623 17.4738 28.4101 16.1817 27.1763 16.1817C25.1808 16.1817 24.1815 18.1209 24.1815 19.7059C24.1815 21.1741 24.8859 22.3495 26.0019 22.3495ZM31.2277 21.1167C29.2312 21.1167 28.0568 23.4051 28.0568 24.9921C28.0568 26.4613 28.9957 27.5179 30.1127 27.5179C31.756 27.5179 32.8147 25.8746 32.8721 24.347C32.9304 22.8184 32.4605 21.1167 31.2277 21.1167ZM15.3722 19.1192C16.4882 19.1192 17.3687 18.2981 17.3687 16.7694C17.3687 14.1862 18.5421 11.602 17.3103 11.602C14.8428 11.602 13.433 15.1835 13.433 16.2411C13.433 17.7104 14.2551 19.1192 15.3722 19.1192ZM10.602 16.3025C10.944 16.3957 11.2634 16.5687 11.2542 16.0855C11.2388 15.3309 11.3166 14.0992 10.944 14.0674C10.7218 14.05 10.1003 15.3442 9.92215 15.9872C9.75628 16.5984 10.2078 16.1961 10.602 16.3025ZM17.5571 10.3805C17.9308 10.4942 18.2779 10.6866 18.2994 10.229C18.3363 9.5133 18.5093 8.35633 18.0957 8.29695C17.852 8.26111 17.0667 9.43139 16.823 10.0242C16.5947 10.5884 17.1261 10.2443 17.5571 10.3805ZM24.1774 10.8044C24.5194 10.8976 24.846 11.0706 24.8306 10.5863C24.7999 9.71705 24.7385 8.51196 24.3668 8.48022C24.1457 8.46179 23.647 9.56961 23.4699 10.2126C23.303 10.8249 23.7842 10.6969 24.1774 10.8044ZM29.6336 14.1412C29.9755 14.2354 30.3032 14.4084 30.2858 13.9241C30.2561 13.0548 30.0503 11.4279 29.6776 11.3982C29.4564 11.3798 29.1278 12.6729 28.8636 13.3722C28.6404 13.964 29.2404 14.0347 29.6336 14.1412ZM33.9144 17.7841C33.6932 17.7656 33.342 18.6697 33.1649 19.3137C32.999 19.925 33.4526 19.8574 33.8468 19.9649C34.1887 20.0581 34.5154 20.2311 34.499 19.7478C34.4672 18.8786 34.287 17.8148 33.9144 17.7841Z" fill="#1A1A1A"/>
</g>
<defs>
<clipPath id="clip0_24_14">
<rect width="26" height="26" fill="white" transform="translate(8.5 8)"/>
</clipPath>
</defs>
</svg>
